<?xml version="1.0" encoding="UTF-8"?>
<svg width="120px" height="120px" viewBox="0 0 120 120" version="1.1" xmlns="http://www.w3.org/2000/svg" xmlns:xlink="http://www.w3.org/1999/xlink">
    <!-- Generator: Sketch 54.1 (76490) - https://sketchapp.com -->
    <title>ic_brand_愿景_pc</title>
    <desc>Created with Sketch.</desc>
    <g id="ic_brand_愿景_pc" stroke="none" stroke-width="1" fill="none" fill-rule="evenodd">
        <path d="M88,70 L88,74 C93.5489958,74 98.0473457,78.4983499 98.0473457,84.0473457 L98.0473457,85.1961591 C98.0473457,85.7484438 98.495061,86.1961591 99.0473457,86.1961591 L100.047346,86.1961591 C106.09633,86.1961591 111,91.0998294 111,97.1488133 L111,102 L115,102 L115,97.1488133 C115,89.5323456 109.305381,83.2459275 101.941585,82.3150023 C101.087983,75.3741925 95.1715966,70 88,70 Z" id="路径-3" fill="#FFC915" fill-rule="nonzero"></path>
        <path d="M7,70 L7,74 C12.5489958,74 17.0473457,78.4983499 17.0473457,84.0473457 L17.0473457,85.1961591 C17.0473457,85.7484438 17.495061,86.1961591 18.0473457,86.1961591 L19.0473457,86.1961591 C25.0963296,86.1961591 30,91.0998294 30,97.1488133 L30,102 L34,102 L34,97.1488133 C34,89.5323456 28.3053805,83.2459275 20.9415849,82.3150023 C20.0879832,75.3741925 14.1715966,70 7,70 Z" id="路径-3" fill="#FFC915" fill-rule="nonzero" transform="translate(20.500000, 86.000000) scale(-1, 1) translate(-20.500000, -86.000000) "></path>
        <path d="M76,19 L82,19 C85.3137085,19 88,21.6862915 88,25 L88,105 C88,108.313708 85.3137085,111 82,111 L38,111 C34.6862915,111 32,108.313708 32,105 L32,25 C32,21.6862915 34.6862915,19 38,19 L43,19 L43,23 L76,23 L76,19 Z M43.0803223,23 C41.9513618,23 40.257921,23 38,23 L38,23 C36.8954305,23 36,23.8954305 36,25 L36,105 C36,106.104569 36.8954305,107 38,107 L82,107 C83.1045695,107 84,106.104569 84,105 L84,25 C84,23.8954305 83.1045695,23 82,23 C79.3313365,23 77.3596568,23 76.0849609,23" id="形状结合" fill="#000000" fill-rule="nonzero"></path>
        <path d="M66.4226074,55.6092236 L66.4226074,25.9950471 C66.4226074,25.7987841 66.3648547,25.60686 66.2565454,25.4431889 L59.1580211,14.7162861 L52.5707916,25.4177756 C52.4739006,25.5751828 52.4225321,25.7563641 52.4223899,25.9412014 L52.3995551,55.6124173 C52.3993655,55.8588192 52.308211,56.0964764 52.1435759,56.2798045 L46.2559795,62.8358901 C46.0911671,63.0194155 46,63.2573796 46,63.5040468 L46,65.5405714 L50.0589596,65.5764943 L50.0235599,69.5763377 L42,69.505327 L42,63.1209339 C42,62.1331249 42.36551,61.1802512 43.0261288,60.445847 L48.1660752,54.7318126 C48.3312299,54.5482116 48.4226074,54.3099932 48.4226074,54.0630409 L48.4226074,25.6585128 C48.4226074,24.9181173 48.6281035,24.1922505 49.0162154,23.5617312 L58.2149364,8.61766157 C58.5044415,8.14733697 59.1204052,8.00075383 59.5907298,8.29025896 C59.7145385,8.36646855 59.8202411,8.46875762 59.9004724,8.5899988 L69.7583593,23.4867001 C70.1915965,24.1413845 70.4226074,24.9090811 70.4226074,25.6941328 L70.4226074,54.0257485 C70.4226074,54.2764075 70.5167425,54.517926 70.686369,54.7024707 L76.0052563,60.4891418 C76.6837624,61.2273209 77.0603027,62.1933948 77.0603027,63.1960308 L77.0603027,69.5331743 L69.0073858,69.4872195 L69.0302118,65.4872847 L73.0603027,65.5102828 L73.0603027,63.5868072 C73.0603027,63.3355414 72.9657124,63.0934839 72.7953502,62.9087916 L66.6875599,56.2872392 C66.5171978,56.1025469 66.4226074,55.8604894 66.4226074,55.6092236 Z" id="形状结合" fill="#000000" fill-rule="nonzero"></path>
        <rect id="矩形" fill="#000000" x="57" y="66" width="5" height="13"></rect>
        <path d="M65,79 C68.5898509,79 71.5,81.9101491 71.5,85.5 L71.5,86.4884033 L75.5,86.4884033 L75.5,85.5 C75.5,79.7010101 70.7989899,75 65,75 L65,79 Z" id="路径-2" fill="#FFC915" fill-rule="nonzero"></path>
        <path d="M43.4853516,78.9951172 C47.0752024,78.9951172 49.9853516,81.9052663 49.9853516,85.4951172 L49.9853516,86.4835205 L53.9853516,86.4835205 L53.9853516,85.4951172 C53.9853516,79.6961273 49.2843414,74.9951172 43.4853516,74.9951172 L43.4853516,78.9951172 Z" id="路径-2" fill="#FFC915" fill-rule="nonzero" transform="translate(48.735352, 80.739319) scale(-1, 1) translate(-48.735352, -80.739319) "></path>
    </g>
</svg>